PathFileType	4	(X/Y/Z)	Patient4_TMGait_0pt5_02_right_41.trc.trc
DataRate	CameraRate	NumFrames	NumMarkers	Units	OrigDataRate	OrigDataStartFrame	OrigNumFrames
74.468085106383	74.468085106383	5	33	mm	74.468085106383	106	       141
Frame#	Time	Sacral			L.Shoulder			Chest			R.Shoulder			Neck			R.ASIS			L.ASIS			R.Thigh.Superior			R.Thigh.Lateral			R.Thigh.Inferior			R.Patella			L.Thigh.Superior			L.Thigh.Lateral			L.Thigh.Inferior			L.Patella			L.Shank.Superior			L.Shank.Lateral			L.Shank.Inferior			R.Shank.Superior			R.Shank.Lateral			R.Shank.Inferior			R.Heel			R.Midfoot.Superior			R.Midfoot.Lateral			R.Toe			L.Heel			L.Midfoot.Lateral			L.Midfoot.Superior			L.Toe			L.Elbow			L.Wrist			R.Elbow			R.Wrist			
		X1	Y1	Z1	X2	Y2	Z2	X3	Y3	Z3	X4	Y4	Z4	X5	Y5	Z5	X6	Y6	Z6	X7	Y7	Z7	X8	Y8	Z8	X9	Y9	Z9	X10	Y10	Z10	X11	Y11	Z11	X12	Y12	Z12	X13	Y13	Z13	X14	Y14	Z14	X15	Y15	Z15	X16	Y16	Z16	X17	Y17	Z17	X18	Y18	Z18	X19	Y19	Z19	X20	Y20	Z20	X21	Y21	Z21	X22	Y22	Z22	X23	Y23	Z23	X24	Y24	Z24	X25	Y25	Z25	X26	Y26	Z26	X27	Y27	Z27	X28	Y28	Z28	X29	Y29	Z29	X30	Y30	Z30	X31	Y31	Z31	X32	Y32	Z32	X33	Y33	Z33	

106	54.950000000000	656.029598527209	1023.751615860217	429.277134631753	877.855432522404	1436.899450680917	252.023956286439	961.983276332494	1360.131155764307	420.705540045227	872.461906199804	1441.984968050717	588.578456965927	871.898302682768	1499.529334784763	401.341588895859	877.175569151626	950.917258672569	554.935418533216	873.135652903750	961.804385823334	281.010694179280	966.390539135979	794.974127607844	527.288103584945	936.437528016551	674.248867865109	604.144132621371	1029.570659185859	639.370329722879	526.802313410077	1057.607032066478	529.565983236227	550.343196640490	901.571031466997	745.137891914951	315.068467565919	801.679353000478	638.026655397271	258.919456062115	873.597182503337	554.367006938210	327.319639611383	865.971387397312	486.591575016128	340.906462432881	839.662628746436	417.393477981547	333.654951048949	749.867926976613	304.114469691436	282.794725323937	791.974560075066	194.467223258549	361.074435331819	990.849410283345	447.251176060984	556.725239164359	876.626825792420	392.140599610788	617.098377356158	876.051088212672	282.211959928347	568.939325707012	685.379276074432	196.194060428024	543.691621167029	859.610354283835	157.025804495859	579.717256750287	751.897308934846	143.747615224243	616.410583196573	936.732232389112	51.676632656143	606.293647531195	656.531256976783	40.314350730065	402.546672559517	733.923952459203	35.811668816416	325.227958191585	817.181014598995	96.279538444413	353.728438231493	946.015619779912	39.724192947631	331.849069991493	912.738944401409	1095.285348861946	111.209849841493	1151.786273639630	995.090713473195	112.789498395680	738.922313913076	1123.710137869422	704.207950303865	722.921424029946	862.783171981069	712.766998062639	
107	54.963428571429	654.998915409305	1023.974060167383	428.592834224899	878.840467202758	1437.004003860202	252.113194831176	961.404746356875	1360.109431335036	421.498942643516	870.715135697431	1442.367468786826	588.527431779289	871.621661611432	1499.617795929278	401.332725864701	875.554281077011	951.489148872259	555.343119746307	872.742841297365	961.903068432930	281.339081356648	965.304322661704	796.693074416716	527.915239766534	936.085921010443	675.663283508468	605.001351232781	1029.186831855287	641.182153640878	527.735944894724	1058.778994163849	533.377328184068	551.447968771215	898.711183433892	744.247009482167	316.099822193700	797.939338054882	638.096854537803	258.990593828691	868.389961735636	553.722318135898	327.817729490334	860.072390406442	486.256210266287	341.203433541466	833.726952911973	417.279432613913	333.813287094507	743.764003836013	304.219052526470	282.771519253455	785.438455849094	194.471220634527	361.154851207643	996.476018758282	449.077297110851	558.205215748342	886.637149777326	387.327976473507	619.607429604091	892.492634317638	277.564626685722	571.445729482790	707.771273920529	179.673601829764	547.460138240985	883.876009861499	151.949179531497	582.667906240173	777.713906312621	132.040133447398	620.111539624291	967.628587398463	52.218950088437	609.319583912363	649.772954510839	40.409598961489	402.439140855885	727.169458326830	35.826888636333	325.223564137758	810.445512316537	96.302273602446	353.708007435442	939.250981705578	39.704220631575	331.852435752872	917.981128332661	1096.956521854231	110.436691832594	1160.969304644395	1007.943042460565	113.420681179219	728.743315635304	1128.476681997157	703.651476855445	704.647218461974	868.336936809308	713.416143309734	
108	54.976857142857	654.064663389003	1024.037671888664	428.044557436816	879.754597286293	1436.917893063266	252.309721737181	960.861284486055	1359.931527423875	422.350704261642	869.082867275033	1442.605144909928	588.537300539315	871.344763166759	1499.538013279086	401.402937779282	874.027440848027	951.795367265597	555.906000679261	872.376212548050	961.804687397618	281.818281633549	963.731966484134	797.347187906304	528.712237686869	934.598140788812	676.169281893641	605.969784276356	1027.389328502279	641.623732892127	528.678026205641	1058.238151940605	536.155494266680	552.475197062475	895.891500354402	743.270534229434	317.264496008954	794.275157210498	638.077874698306	259.094005146365	863.246581427634	553.001526760019	328.343918541952	854.245488451518	485.840945385182	341.505832329586	827.831268914981	417.083999941532	333.996953251522	737.689871334403	304.254531684432	282.769777230052	778.910218829740	194.406165280533	361.268033008487	1000.807925756751	450.223298685483	559.769796070612	896.238345658369	381.673716379060	622.425365191613	908.974131029670	272.535992433836	574.214643091970	731.540617919704	162.337390128852	551.664909406742	908.889044010049	146.947589627202	585.952383011234	804.830842126091	120.039350109879	624.183606294800	999.324881306402	53.556106206613	612.592627459288	643.015881237395	40.459946511910	402.347471012767	720.401582901447	35.822729119523	325.224301432435	803.684895325997	96.300261357478	353.721328375332	932.478554594310	39.694751956338	331.867864637917	922.780050159250	1098.404413279214	109.867630934083	1169.060762873993	1020.401493719627	114.449046702579	719.365262006746	1133.008428117309	702.960139165777	687.994105141599	873.778985937225	713.741177071973	
109	54.990285714286	653.226117228724	1023.921418929939	427.640779427993	880.569477123114	1436.620862728867	252.614635041145	960.351252973631	1359.581095728990	423.254465784665	867.577304460968	1442.669900724118	588.616776850292	871.071431673354	1499.273043780062	401.557275463701	872.610362122745	951.800931178089	556.608019925146	872.039797303651	961.505976201726	282.426893868257	961.679140982523	796.871357517305	529.676128084024	931.986668472364	675.757626723906	607.076485592595	1024.198937991161	640.682887998369	529.632940063506	1056.039005726811	537.869983129076	553.402979086754	893.148576933932	742.206922571439	318.499677368518	790.712801869499	637.961086005162	259.222889382900	858.219613617170	552.202961405805	328.871115439048	848.544467149580	485.336567944608	341.801790470143	822.016516326368	416.798886708384	334.198878566998	731.676032950517	304.221672555849	282.783702535947	772.407083216264	194.269112416291	361.405365501749	1003.827454472208	450.738631797304	561.395324603115	905.361636177551	375.416805988794	625.462423272021	925.308890606798	267.430955152492	577.140557773290	756.488681023382	144.811227069101	556.076659239718	934.325500218147	142.376564054282	589.429204173656	832.920774874535	108.253718554209	628.410336837997	1031.290333032860	55.951535583590	615.959414157424	636.257674458788	40.468185375840	402.273864189824	713.621925630503	35.799428068837	325.228707769267	796.901962473735	96.272463877359	353.764535550181	925.698788790662	39.692156382502	331.894084768292	927.148090762147	1099.584855021921	109.496000081769	1176.092618309944	1032.305190252733	115.849206765799	710.851611440386	1137.180126103895	702.175916259312	673.003010127029	878.915140798944	713.785506015878	
110	55.003714285714	652.490115382574	1023.612895212670	427.394916667636	881.260444864729	1436.110118726231	253.031204030483	959.874199510009	1359.055766996714	424.205607633576	866.212620052981	1442.545555364930	588.782218413240	870.804717788429	1498.819410369461	401.805973983293	871.317230927402	951.489429557575	557.433729462312	871.746584418393	961.018864986790	283.142524935319	959.163351455275	795.261051909467	530.807273208391	928.308369589651	674.473790395968	608.353397500493	1019.694078730224	638.430517883158	530.614841392424	1052.295547712149	538.551716231503	554.227222923488	890.516850912301	741.061092295901	319.754065387384	787.278067751952	637.746565899359	259.376131826992	853.354425054069	551.331881448257	329.382384697828	843.015960520561	484.742061095838	342.084549558120	816.318864604363	416.423495780654	334.414113929804	725.749085485048	304.128721318488	282.808290077983	765.944285718249	194.063613629661	361.556456719798	1005.553738267002	450.700024171094	563.060257333762	913.904635185673	368.812936077955	628.609263482646	941.257496621018	262.535888236941	580.102041072757	782.252547030533	127.719797625777	560.437142838978	959.768848786646	138.518605392081	592.933051661043	861.511919453743	97.136159039913	632.547333877537	1062.914576503328	59.529305838354	619.241099902677	629.496443194122	40.442381530337	402.218772964479	706.833161814340	35.759375361641	325.234893720307	790.101784599359	96.220847478414	353.830666656583	918.912784905187	39.692478524495	331.929474021601	931.091136759579	1100.469460562146	109.324587006154	1182.105268615408	1043.503664536222	117.594445405738	703.256467651817	1140.877809300617	701.347470219100	659.706403727845	883.572898735236	713.594134098072	
